<svg xmlns="http://www.w3.org/2000/svg" viewBox="0 0 1517.69 4286.82">
  <defs>
    <style>
      .cls-1 {
        fill: #2b7a78;
      }

      .cls-2 {
        fill: #def2f1;
      }

      .cls-3, .cls-4 {
        font-size: 60px;
      }

      .cls-3, .cls-5, .cls-7, .cls-8 {
        fill: #feffff;
      }

      .cls-3, .cls-4, .cls-5, .cls-6 {
        font-family: Gibson-Bold, Gibson;
        font-weight: 700;
      }

      .cls-4, .cls-6 {
        fill: #17252a;
      }

      .cls-5 {
        font-size: 72px;
      }

      .cls-6 {
        font-size: 48px;
      }

      .cls-7 {
        font-size: 24px;
        font-family: Gibson-Regular, Gibson;
      }

      .cls-9 {
        fill: #faffff;
      }

      .cls-10 {
        font-family: MyriadPro-Regular, Myriad Pro;
      }

      .cls-11 {
        letter-spacing: -0.07em;
      }
    </style>
  </defs>
  <title>timeline</title>
  <g id="green-pipe">
    <rect class="cls-1" x="728.23" y="20.82" width="24" height="227"/>
    <rect class="cls-1" x="663.23" y="20.82" width="65" height="24"/>
    <rect class="cls-1" x="-1878.5" y="-1092.5" width="24" height="357" transform="translate(1463.73 -1630.68) rotate(-90)"/>
    <rect class="cls-1" x="371.23" y="247.82" width="24" height="270"/>
    <rect class="cls-1" x="371.23" y="517.82" width="24" height="88"/>
    <rect class="cls-1" x="-1804" y="-785" width="24" height="506" transform="translate(1156.23 -1174.18) rotate(-90)"/>
    <rect class="cls-1" x="853.23" y="629.82" width="24" height="312"/>
    <rect class="cls-1" x="853.23" y="941.82" width="24" height="82"/>
    <rect class="cls-1" x="-1816" y="-379" width="24" height="482" transform="translate(474.23 2815.82) rotate(90)"/>
    <rect class="cls-1" x="-2045" y="-126" width="24" height="443" transform="translate(-1649.77 1340.82) rotate(180)"/>
    <rect class="cls-1" x="-1954" y="226" width="24" height="158" transform="translate(779.23 3396.82) rotate(90)"/>
    <rect class="cls-1" x="-1887" y="317" width="24" height="349" transform="translate(-1333.77 2132.82) rotate(180)"/>
    <rect class="cls-1" x="-1570" y="349" width="24" height="610" transform="translate(1512.23 3361.82) rotate(90)"/>
    <rect class="cls-1" x="1139.23" y="1815.82" width="24" height="397"/>
    <rect class="cls-1" x="-1593" y="747" width="24" height="608" transform="translate(1886.23 3781.82) rotate(90)"/>
    <rect class="cls-1" x="531.23" y="2212.82" width="24" height="412"/>
    <rect class="cls-1" x="-1671.5" y="1261.5" width="24" height="451" transform="translate(2243.73 4296.32) rotate(90)"/>
    <rect class="cls-1" x="-1434" y="1475" width="24" height="451" transform="translate(-427.77 4550.82) rotate(180)"/>
    <rect class="cls-1" x="-1716.5" y="1643.5" width="24" height="541" transform="translate(-1202.27 1359.32) rotate(-90)"/>
    <rect class="cls-1" x="441.23" y="3075.82" width="24" height="425"/>
    <rect class="cls-1" x="-1864.5" y="2240.5" width="24" height="197" transform="translate(2902.73 5341.32) rotate(90)"/>
    <rect class="cls-1" x="-1778" y="2351" width="24" height="393" transform="translate(-1115.77 6244.82) rotate(180)"/>
    <rect class="cls-1" x="-1569.5" y="2535.5" width="24" height="393" transform="translate(-1873.27 2324.32) rotate(-90)"/>
    <rect class="cls-1" x="-1385" y="2744" width="24" height="393" transform="translate(-329.77 7030.82) rotate(180)"/>
  </g>
  <g id="title-line">
    <rect class="cls-2" x="598.23" y="20.82" width="65" height="24"/>
  </g>
  <g id="the-history">
    <text class="cls-3" transform="translate(355.23 51.18)">SHORT</text>
    <text class="cls-3" transform="translate(351.23 99.18)">HISTORY</text>
  </g>
  <g id="of_music" data-name="of music">
    <text class="cls-4" transform="translate(353.23 150.18)">OF MUSIC</text>
    <text class="cls-4" transform="translate(350.23 200.18)">FORMATS</text>
  </g>
  <g id="phono-line">
    <rect class="cls-2" x="306.23" y="493.82" width="65" height="24"/>
  </g>
  <g id="phono-year">
    <text class="cls-5" transform="translate(143.23 533.65)">1877 </text>
  </g>
  <g id="phono-text">
    <text class="cls-6" transform="translate(437.73 307.21)">THE PHONOGRAPH</text>
    <text class="cls-7" transform="translate(442.23 348.76)">Thomas Edison&apos;s invention, the phonograph, was the result of his work on two other <tspan x="0" y="28.8">inventions: the telegraph and the telephone. He experimented with a diaphragm </tspan><tspan x="0" y="57.6">which had an embossing point and was held against rapidly-moving paraffin paper. The </tspan><tspan x="0" y="86.4">speaking vibrations made indentations in the paper.</tspan><tspan x="0" y="144">Within 30 hours, Thomas Edison and his mechanic, John Kruesi, had a working proto</tspan><tspan x="808.98" y="144">-</tspan><tspan x="0" y="172.8">type. Edison immediately tested the machine by speaking the nursery rhyme into the </tspan><tspan x="0" y="201.6">mouthpiece, &quot;Mary had a little lamb.&quot; To his amazement, the machine played his </tspan><tspan x="0" y="230.4">words back to him.</tspan></text>
  </g>
  <g id="phono-icon">
    <path class="cls-8" d="M-2270-808.72v57.81A20,20,0,0,0-2250.08-731h17.14v10.8a10.39,10.39,0,0,0-9.83,10.36v2.05A4.78,4.78,0,0,0-2238-703h13.37a2.86,2.86,0,0,0,2.87-2.87,2.86,2.86,0,0,0-2.87-2.87H-2237v-1.09a4.65,4.65,0,0,1,4.64-4.64h80.51a4.65,4.65,0,0,1,4.64,4.64v1.09h-65.92a2.87,2.87,0,0,0-2.87,2.87,2.87,2.87,0,0,0,2.87,2.87h66.89a4.78,4.78,0,0,0,4.77-4.77v-2.05a10.39,10.39,0,0,0-9.83-10.36v-26.57a10.39,10.39,0,0,0,9.83-10.36v-2.05a4.78,4.78,0,0,0-4.77-4.77h-43v-3.37h26.36a8.47,8.47,0,0,0,8.46-8.46,8.47,8.47,0,0,0-8.46-8.46h-26.36v-3.33a2.87,2.87,0,0,0-2.87-2.87,2.87,2.87,0,0,0-2.87,2.87v3.33h-16.65v-2.18a11.64,11.64,0,0,0,8.75-11.26,11.63,11.63,0,0,0-11.62-11.62,11.59,11.59,0,0,0-8.76,4h-13.06a7,7,0,0,1-7-7v-.49h1.66a2.86,2.86,0,0,0,2.87-2.87,2.86,2.86,0,0,0-2.87-2.87h-1.66v-.16c0-.28,0-.56,0-.84a22.82,22.82,0,0,1,11.17-19,23.81,23.81,0,0,1,22.71-1.18l51.13,24.36a9.42,9.42,0,0,0,9.38,8.66,9.41,9.41,0,0,0,9.4-9.4v-73.12a9.41,9.41,0,0,0-9.4-9.4,9.42,9.42,0,0,0-9.38,8.67l-58.82,28.15a23.59,23.59,0,0,1-6.42,2.06,41.69,41.69,0,0,0-25,14,41.58,41.58,0,0,0-10.08,27.13v.16h-1.64A9.8,9.8,0,0,0-2270-808.72Zm21-9.94v.16h-3.79v-.16a35.85,35.85,0,0,1,8.69-23.39,36,36,0,0,1,21.51-12,29.34,29.34,0,0,0,8-2.55l56.32-27v17.17a2.87,2.87,0,0,0,2.87,2.87,2.86,2.86,0,0,0,2.87-2.87v-21.63c0-.06,0-.12,0-.18v-1a3.68,3.68,0,0,1,3.67-3.67,3.68,3.68,0,0,1,3.67,3.67v73.12a3.68,3.68,0,0,1-3.67,3.67,3.68,3.68,0,0,1-3.67-3.67v-1q0-.09,0-.18V-855a2.87,2.87,0,0,0-2.87-2.87,2.87,2.87,0,0,0-2.87,2.87v33.23L-2207-844.91a29.53,29.53,0,0,0-28.15,1.46A28.83,28.83,0,0,0-2249-819.71C-2249-819.37-2249-819-2249-818.67Zm23.07,19.1a11.65,11.65,0,0,0-.16,1.89,11.66,11.66,0,0,0,.16,1.9h-10.35a16.53,16.53,0,0,1-16.51-16.51v-.49h3.79v.49a12.73,12.73,0,0,0,12.72,12.72Zm11.46,7.78a5.89,5.89,0,0,1-5.89-5.89,5.89,5.89,0,0,1,5.89-5.89,5.9,5.9,0,0,1,5.89,5.89A5.9,5.9,0,0,1-2214.51-791.78Zm51.61,18.74h-58.45a2.73,2.73,0,0,1-2.73-2.73,2.73,2.73,0,0,1,2.73-2.73h58.45a2.73,2.73,0,0,1,2.73,2.73A2.73,2.73,0,0,1-2162.91-773Zm11,20.57h-19a2.86,2.86,0,0,0-2.87,2.87,2.86,2.86,0,0,0,2.87,2.87h13.87v26.54h-70.15v-26.54h44.81a2.87,2.87,0,0,0,2.87-2.87,2.87,2.87,0,0,0-2.87-2.87h-50a4.65,4.65,0,0,1-4.64-4.64v-1.09h89.8v1.09A4.65,4.65,0,0,1-2151.88-752.47Zm-112.39-56.26a4.06,4.06,0,0,1,4.05-4.05h1.64v.49A22.27,22.27,0,0,0-2236.33-790h13.06a11.64,11.64,0,0,0,5.89,3.63v2.18h-4a8.47,8.47,0,0,0-8.46,8.46,8.47,8.47,0,0,0,8.46,8.46H-2195v3.37h-43a4.78,4.78,0,0,0-4.77,4.77v2.05a10.39,10.39,0,0,0,9.83,10.36v10h-17.14a14.21,14.21,0,0,1-14.19-14.19Z" transform="translate(2416.23 1149.82)"/>
  </g>
  <g id="record-line">
    <rect class="cls-2" x="877.23" y="860.82" width="65" height="24"/>
  </g>
  <g id="record-year">
    <text class="cls-5" transform="translate(949.23 898.65)">1948</text>
  </g>
  <g id="record-icon">
    <path class="cls-8" d="M-1387.61-481A77.39,77.39,0,0,0-1465-403.61a77.39,77.39,0,0,0,77.39,77.39,77.39,77.39,0,0,0,77.39-77.39A77.48,77.48,0,0,0-1387.61-481Zm0,148.95a71.56,71.56,0,0,1-71.56-71.56,71.56,71.56,0,0,1,71.56-71.56,71.56,71.56,0,0,1,71.56,71.56A71.64,71.64,0,0,1-1387.61-332.05Z" transform="translate(2416.23 1149.82)"/>
    <path class="cls-8" d="M-1387.61-429.43a25.82,25.82,0,0,0-25.82,25.82,25.82,25.82,0,0,0,25.82,25.82,25.82,25.82,0,0,0,25.82-25.82A25.85,25.85,0,0,0-1387.61-429.43Zm0,45.8a20,20,0,0,1-20-20,20,20,0,0,1,20-20,20,20,0,0,1,20,20A20,20,0,0,1-1387.61-383.62Z" transform="translate(2416.23 1149.82)"/>
    <path class="cls-8" d="M-1387.61-413.5a9.89,9.89,0,0,0-9.89,9.89,9.89,9.89,0,0,0,9.89,9.89,9.89,9.89,0,0,0,9.89-9.89A9.9,9.9,0,0,0-1387.61-413.5Zm0,14a4.06,4.06,0,0,1-4.06-4.06,4.06,4.06,0,0,1,4.06-4.06,4.06,4.06,0,0,1,4.06,4.06A4.07,4.07,0,0,1-1387.61-399.55Z" transform="translate(2416.23 1149.82)"/>
    <path class="cls-8" d="M-1402.34-369.93a36.71,36.71,0,0,1-19-19,2.91,2.91,0,0,0-3.84-1.5,2.92,2.92,0,0,0-1.5,3.84,42.52,42.52,0,0,0,22,22,2.92,2.92,0,0,0,3.84-1.5A2.92,2.92,0,0,0-1402.34-369.93Z" transform="translate(2416.23 1149.82)"/>
    <path class="cls-8" d="M-1402.7-351.71a54.45,54.45,0,0,1-36.81-36.81,2.92,2.92,0,0,0-3.61-2,2.92,2.92,0,0,0-2,3.61,60.33,60.33,0,0,0,40.79,40.78,2.92,2.92,0,0,0,3.61-2A2.92,2.92,0,0,0-1402.7-351.71Z" transform="translate(2416.23 1149.82)"/>
    <path class="cls-8" d="M-1370.54-442.63a2.91,2.91,0,0,0-3.84,1.5,2.91,2.91,0,0,0,1.5,3.84,36.71,36.71,0,0,1,19,19,2.91,2.91,0,0,0,3.84,1.5,2.92,2.92,0,0,0,1.5-3.84A42.52,42.52,0,0,0-1370.54-442.63Z" transform="translate(2416.23 1149.82)"/>
    <path class="cls-8" d="M-1330.11-420.32a60.32,60.32,0,0,0-40.78-40.79,2.92,2.92,0,0,0-3.61,2,2.92,2.92,0,0,0,2,3.61,54.44,54.44,0,0,1,36.81,36.81,2.92,2.92,0,0,0,3.61,2A2.92,2.92,0,0,0-1330.11-420.32Z" transform="translate(2416.23 1149.82)"/>
  </g>
  <g id="record-title">
    <text class="cls-6" transform="translate(1.73 676.21)">THE RECORD</text>
  </g>
  <g id="record-text">
    <text class="cls-7" transform="translate(1.23 705.76)">The very first format was the records of different speeds (RPM). The very early ver<tspan x="786.23" y="0">-</tspan><tspan x="0" y="28.8">sions were 78 RPM and quite noisy. They were made of shellac which made the </tspan><tspan x="0" y="57.6">noise. </tspan><tspan x="0" y="115.2">Later, in 1948, Columbia records made the 33 RPM Long Play format which is called </tspan><tspan x="0" y="144">LP format. RCA developed a 45 RPM Extended Play format shortly after that which </tspan><tspan x="0" y="172.8">was called EP. Since the shellac records were fragile, Columbia and RCA began to </tspan><tspan x="0" y="201.6">look for options and invented the Vinyl records.</tspan><tspan x="0" y="259.2">Vinyl records are still famous among music lovers and have a market among the digi</tspan><tspan x="793.07" y="259.2">-</tspan><tspan x="0" y="288">tized musical world.</tspan></text>
  </g>
  <g id="cassette-line">
    <rect class="cls-2" x="306.23" y="1196.82" width="65" height="24"/>
  </g>
  <g id="cassette-year">
    <text class="cls-5" transform="translate(141.23 1237.65)">1963</text>
  </g>
  <g id="cassette-icon">
    <path class="cls-8" d="M-2276.61-117.28a3.4,3.4,0,0,0-3.39,3.41V-.69a3.4,3.4,0,0,0,3.39,3.41h165.23A3.4,3.4,0,0,0-2108-.69V-113.86a3.4,3.4,0,0,0-3.39-3.41h-66.32a3.4,3.4,0,0,0-3.38,3.22,13,13,0,0,1-7.55,11.12,13.09,13.09,0,0,1-10.47.11,13,13,0,0,1-7.8-11.23,3.4,3.4,0,0,0-3.38-3.22Zm132.42,6.82h5.09v23.92h-5.09ZM-2151-86.53h-6.45v-23.92h6.45Zm-13.22,0h-6.45v-23.92h6.45Zm-13.22-17.55v17.55h-6.45V-97.78A19.73,19.73,0,0,0-2177.4-104.08Zm-13.22,8.85v8.7h-6.45v-8.65A19.79,19.79,0,0,0-2190.62-95.23Zm-13.22-2.36v11.06h-6.45v-17A19.66,19.66,0,0,0-2203.84-97.59Zm-13.22,11.06h-6.45v-23.92h6.45Zm-13.22,0h-6.45v-23.92h6.45Zm-13.22,0h-5.4v-23.92h5.4Zm107.77,6.82a3.4,3.4,0,0,0,3.39-3.41v-27.33h17.56V-4.1h-158.46V-110.45h17.56v27.33a3.4,3.4,0,0,0,3.39,3.41Z" transform="translate(2416.23 1149.82)"/>
    <path class="cls-8" d="M-2239.29-63.66A16.68,16.68,0,0,0-2255.94-47a16.67,16.67,0,0,0,16.66,16.66h90.41A16.67,16.67,0,0,0-2132.22-47a16.68,16.68,0,0,0-16.66-16.66Zm28.41,26.52h-15a16.56,16.56,0,0,0,3.24-9.86,16.56,16.56,0,0,0-3.24-9.86h15ZM-2249.15-47a9.88,9.88,0,0,1,9.87-9.86,9.87,9.87,0,0,1,9.86,9.86,9.87,9.87,0,0,1-9.86,9.86A9.88,9.88,0,0,1-2249.15-47Zm45.07-9.86h19.82v19.73h-19.82Zm26.61,0h15.18a16.56,16.56,0,0,0-3.24,9.86,16.56,16.56,0,0,0,3.24,9.86h-15.18V-56.87Zm28.59,19.73a9.87,9.87,0,0,1-9.86-9.86,9.87,9.87,0,0,1,9.86-9.86A9.87,9.87,0,0,1-2139-47,9.87,9.87,0,0,1-2148.88-37.14Z" transform="translate(2416.23 1149.82)"/>
    <path class="cls-8" d="M-2236.08-47a3.44,3.44,0,0,0-3.34-3.39,3.41,3.41,0,0,0-3.44,3.4,3.42,3.42,0,0,0,3.46,3.38A3.45,3.45,0,0,0-2236.08-47Z" transform="translate(2416.23 1149.82)"/>
    <path class="cls-8" d="M-2149.07-50.4a3.44,3.44,0,0,0-3.39,3.34,3.42,3.42,0,0,0,3.4,3.44,3.42,3.42,0,0,0,3.39-3.46A3.45,3.45,0,0,0-2149.07-50.4Z" transform="translate(2416.23 1149.82)"/>
    <path class="cls-8" d="M-2175.76-22.49h-50.46c-4.36,0-4.37,6.79,0,6.79h50.46C-2171.4-15.69-2171.39-22.49-2175.76-22.49Z" transform="translate(2416.23 1149.82)"/>
    <path class="cls-8" d="M-2265.27-16.21a3.44,3.44,0,0,0-3.39,3.34,3.42,3.42,0,0,0,3.4,3.44,3.42,3.42,0,0,0,3.39-3.46A3.45,3.45,0,0,0-2265.27-16.21Z" transform="translate(2416.23 1149.82)"/>
    <path class="cls-8" d="M-2123.95-9.41a3.44,3.44,0,0,0,3.39-3.34,3.42,3.42,0,0,0-3.4-3.44,3.43,3.43,0,0,0-3.39,3.47A3.45,3.45,0,0,0-2123.95-9.41Z" transform="translate(2416.23 1149.82)"/>
    <path class="cls-8" d="M-2123.95-99a3.44,3.44,0,0,0,3.39-3.34,3.42,3.42,0,0,0-3.4-3.44,3.42,3.42,0,0,0-3.39,3.47A3.45,3.45,0,0,0-2123.95-99Z" transform="translate(2416.23 1149.82)"/>
    <path class="cls-8" d="M-2265.27-105.83a3.43,3.43,0,0,0-3.39,3.34,3.42,3.42,0,0,0,3.4,3.45,3.43,3.43,0,0,0,3.39-3.47A3.45,3.45,0,0,0-2265.27-105.83Z" transform="translate(2416.23 1149.82)"/>
    <path class="cls-8" d="M-2162.33-22.49a3.43,3.43,0,0,0-3.39,3.34,3.41,3.41,0,0,0,3.4,3.45,3.43,3.43,0,0,0,3.39-3.46A3.45,3.45,0,0,0-2162.33-22.49Z" transform="translate(2416.23 1149.82)"/>
  </g>
  <g id="cassette-title">
    <text class="cls-6" transform="translate(448.73 1108.21)">COMPACT CASSETTE</text>
  </g>
  <g id="cassette-text">
    <text class="cls-7" transform="translate(447.23 1163.3)">Compact Cassette was invented by Phillips and was affordable and small. The size of the tapes <tspan x="0" y="28.8">gave birth to the portable player; the major development in the history of physical formats. </tspan><tspan x="0" y="57.6">The cassette held 45 minutes of audio per side on both sides. This is much more than the pre</tspan><tspan x="884.74" y="57.6">-</tspan><tspan x="0" y="86.4">vious formats. </tspan><tspan x="0" y="144">The invention of cassette tapes first started the issue that music faces until today; Piracy. </tspan><tspan x="0" y="172.8">Though this had lots of controversies, it wasn’t all gloom and doom since it gave birth to mix</tspan><tspan x="880.47" y="172.8">-</tspan><tspan x="0" y="201.6">tapes which have since evolved to today’s playlists.</tspan></text>
  </g>
  <g id="radio-line">
    <rect class="cls-2" x="-1952" y="405" width="65" height="24" transform="translate(-1422.77 1983.82) rotate(180)"/>
  </g>
  <g id="radio-year">
    <text class="cls-5" transform="translate(294.23 1589.65)">1964</text>
  </g>
  <g id="radio-icon">
    <path class="cls-8" d="M-2107,481.87V466a2.31,2.31,0,0,1,2-2.52h117.85a2.31,2.31,0,0,1,2,2.52v13.69a2.31,2.31,0,0,1-2,2.52,2.31,2.31,0,0,1-2-2.52V468.55H-2103v13.33c0,1.39-.74.34-1.84.34S-2107,483.26-2107,481.87Zm155.06,9.45v78.89A12.88,12.88,0,0,1-1964.9,583h-165.62a12.88,12.88,0,0,1-12.94-12.79V491.32a12.88,12.88,0,0,1,12.94-12.78h165.62A12.88,12.88,0,0,1-1952,491.32Zm-3.78-2a6.07,6.07,0,0,0-6.06-6.06h-171.83a6.07,6.07,0,0,0-6.06,6.06V572.2a6.07,6.07,0,0,0,6.06,6.06h171.83a6.07,6.07,0,0,0,6.06-6.06Zm-153.67,9.05h128.19a1.92,1.92,0,0,0,2.06-1.74,1.92,1.92,0,0,0-2.06-1.74H-2109.4a1.92,1.92,0,0,0-2.06,1.74A1.92,1.92,0,0,0-2109.4,498.38Zm24.64,38.91a24,24,0,0,1-24,24,24,24,0,0,1-24-24,24,24,0,0,1,24-24A24,24,0,0,1-2084.76,537.29Zm-3.46,0a20.56,20.56,0,0,0-20.54-20.53,20.56,20.56,0,0,0-20.54,20.53,20.56,20.56,0,0,0,20.54,20.53A20.56,20.56,0,0,0-2088.22,537.29Zm-3.53,0a17,17,0,0,1-17,17,17,17,0,0,1-17-17,17,17,0,0,1,17-17A17,17,0,0,1-2091.75,537.29Zm-1.61,0a15.42,15.42,0,0,0-15.4-15.4,15.41,15.41,0,0,0-15.4,15.4,15.41,15.41,0,0,0,15.4,15.4A15.41,15.41,0,0,0-2093.36,537.29Zm128.63,0a24,24,0,0,1-24,24,24,24,0,0,1-24-24,24,24,0,0,1,24-24A24,24,0,0,1-1964.73,537.29Zm-3.46,0a20.56,20.56,0,0,0-20.54-20.53,20.56,20.56,0,0,0-20.53,20.53,20.55,20.55,0,0,0,20.53,20.53A20.56,20.56,0,0,0-1968.18,537.29Zm-3.53,0a17,17,0,0,1-17,17,17,17,0,0,1-17-17,17,17,0,0,1,17-17A17,17,0,0,1-1971.71,537.29Zm-1.61,0a15.42,15.42,0,0,0-15.4-15.4,15.41,15.41,0,0,0-15.4,15.4,15.41,15.41,0,0,0,15.4,15.4A15.41,15.41,0,0,0-1973.32,537.29Zm-93.07,21v3.53a2.66,2.66,0,0,1-2.66,2.65h-4.87a2.66,2.66,0,0,1-2.66-2.65v-3.53a2.66,2.66,0,0,1,2.66-2.66h4.87A2.66,2.66,0,0,1-2066.4,558.26Zm-1.85,0a.8.8,0,0,0-.8-.8h-4.87a.8.8,0,0,0-.8.8v3.53a.8.8,0,0,0,.8.8h4.87a.8.8,0,0,0,.8-.8Zm15.47,0v3.53a2.66,2.66,0,0,1-2.66,2.65h-4.87a2.66,2.66,0,0,1-2.66-2.65v-3.53a2.66,2.66,0,0,1,2.66-2.66h4.87A2.66,2.66,0,0,1-2052.78,558.26Zm-1.85,0a.8.8,0,0,0-.8-.8h-4.87a.8.8,0,0,0-.8.8v3.53a.8.8,0,0,0,.8.8h4.87a.8.8,0,0,0,.8-.8Zm36.61-44.14v35.47a1.75,1.75,0,0,1-1.75,1.75h-57.58a1.75,1.75,0,0,1-1.74-1.75V514.11a1.75,1.75,0,0,1,1.74-1.74h57.58A1.75,1.75,0,0,1-2018,514.11Zm-2.68.32h-55.71v34.82h55.71Zm-88.05,9.69,120,3.15" transform="translate(2416.23 1149.82)"/>
  </g>
  <g id="radio-title">
    <text class="cls-6" transform="translate(601.73 1545.21)">8 TRACK TAPE</text>
  </g>
  <g id="radio-text">
    <text class="cls-7" transform="translate(605.23 1599.3)">The 8-track tape was a collaborative effort between RCA records and <tspan x="0" y="28.8">Lear Jet Company. The benefit over the compact cassette was the </tspan><tspan x="0" y="57.6">storage. Here they could store 8 soundtracks and 4 audio programs. </tspan><tspan x="0" y="86.4">This was after the war and automobile industry was facing a boom. </tspan><tspan x="0" y="115.2">Ford offered the 8-track tapes as an option in their cars.</tspan></text>
  </g>
  <g id="floppy-line">
    <rect class="cls-2" x="-1907.5" y="686.5" width="65" height="24" transform="translate(-157.27 -26.68) rotate(-90)"/>
  </g>
  <g id="floppy-year">
    <text class="cls-5" transform="translate(464.23 1950.65)">1972</text>
  </g>
  <g id="floppy-icon">
    <g>
      <path class="cls-9" d="M-1826.13,830H-1941.5V973.43H-1801V855.13Zm-12.92,5.85v41h-70.25v-41Zm-76.1,131.72V912h84.89v55.61Zm108.3,0h-17.56V906.1H-1921v61.47h-14.64V835.85h20.49v46.83h82V835.85h4.64l21.7,21.7Z" transform="translate(2416.23 1149.82)"/>
      <path class="cls-9" d="M-1903.45,926.59H-1883a2.92,2.92,0,0,0,2.93-2.93,2.92,2.92,0,0,0-2.93-2.93h-20.49a2.92,2.92,0,0,0-2.93,2.93A2.92,2.92,0,0,0-1903.45,926.59Z" transform="translate(2416.23 1149.82)"/>
      <path class="cls-9" d="M-1874.18,932.45h-29.27a2.92,2.92,0,0,0-2.93,2.93,2.92,2.92,0,0,0,2.93,2.93h29.27a2.92,2.92,0,0,0,2.93-2.93A2.92,2.92,0,0,0-1874.18,932.45Z" transform="translate(2416.23 1149.82)"/>
      <path class="cls-9" d="M-1867.47,933.3a3.06,3.06,0,0,0-.85,2.08,3.06,3.06,0,0,0,.85,2.08,3,3,0,0,0,2.08.85,3.08,3.08,0,0,0,2.08-.85,3.08,3.08,0,0,0,.85-2.08,3.07,3.07,0,0,0-.85-2.08A3.06,3.06,0,0,0-1867.47,933.3Z" transform="translate(2416.23 1149.82)"/>
      <path class="cls-9" d="M-1844.91,841.71h-17.56V871h17.56Zm-5.85,23.42h-5.85V847.56h5.85Z" transform="translate(2416.23 1149.82)"/>
    </g>
  </g>
  <g id="floppy-title">
    <text class="cls-6" transform="translate(658.73 1875.21)">FLOPPY DISK</text>
  </g>
  <g id="floppy-text">
    <text class="cls-7" transform="translate(660.23 1930.3)">Floppy disk is usually linked with data storage but <tspan x="0" y="28.8">there were a few artists who released their </tspan><tspan x="0" y="57.6">album in floppies. IBM introduced the floppy disk </tspan><tspan x="0" y="86.4">to the market with their 8 version first in 1972. </tspan><tspan x="0" y="115.2">They had two more developments with the 5 </tspan><tspan class="cls-10" x="438.09" y="115.2">½</tspan><tspan x="456.3" y="115.2"> </tspan><tspan x="0" y="144">inch and 3 </tspan><tspan class="cls-10" x="103.89" y="144">½</tspan><tspan x="122.11" y="144" xml:space="preserve"> inch format. Though this format </tspan><tspan x="0" y="172.8">never caught on to the mainstream, it paved the </tspan><tspan x="0" y="201.6">way for music’s digital future.</tspan></text>
  </g>
  <g id="cd-line">
    <rect class="cls-2" x="466.23" y="2426.82" width="65" height="24"/>
  </g>
  <g id="cd-year">
    <text class="cls-5" transform="translate(305.23 2462.65)">1982</text>
  </g>
  <g id="cd-icon">
    <g>
      <path class="cls-8" d="M-1963.81,1067.68A93.68,93.68,0,0,0-2072,1050.27l0-.07-2.83,1.55-.49.29q-2.49,1.38-4.9,2.91l-.49.31q-2.62,1.69-5.15,3.58l-.61.47q-2.09,1.58-4.1,3.3l-1.12,1c-1.5,1.32-3,2.68-4.41,4.11s-2.79,2.91-4.11,4.41l-1,1.12q-1.72,2-3.3,4.1l-.47.61q-1.89,2.53-3.58,5.14l-.31.5q-1.54,2.41-2.91,4.9c-.09.17-.2.33-.29.49l-1.55,2.83.07,0A93.69,93.69,0,0,0-2096.09,1200a93.25,93.25,0,0,0,66.14,27.35,93.69,93.69,0,0,0,42-9.94l0,.07,2.83-1.55.48-.29q2.49-1.38,4.92-2.92l.48-.3q2.62-1.69,5.15-3.58l.62-.48q2.09-1.58,4.09-3.3l1.12-1c1.5-1.32,3-2.67,4.41-4.11s2.79-2.91,4.11-4.41l1-1.12q1.72-2,3.3-4.1l.47-.61q1.89-2.53,3.58-5.15l.31-.49q1.54-2.41,2.91-4.9c.09-.17.2-.33.29-.49l1.55-2.83-.07,0A93.68,93.68,0,0,0-1963.81,1067.68Zm-66.14-20.91a86.82,86.82,0,0,1,61.58,25.47,87.22,87.22,0,0,1,16.31,100.49l-42.54-23.25a38.74,38.74,0,0,0-8-43,38.73,38.73,0,0,0-43-8l-23.25-42.53A87.24,87.24,0,0,1-2029.95,1046.77Zm71.57,136.64c-.79,1.14-1.6,2.24-2.44,3.34l-.78,1c-.8,1-1.63,2-2.47,3-.28.33-.55.65-.84,1-1.12,1.25-2.26,2.49-3.45,3.68s-2.42,2.34-3.68,3.45c-.32.29-.65.56-1,.84-1,.85-2,1.67-3,2.47l-1,.78q-1.64,1.26-3.34,2.44l-.72.5c-1.4,1-2.83,1.87-4.29,2.74l-23.24-42.51a38.76,38.76,0,0,0,6-4.93,38.61,38.61,0,0,0,4.93-6l42.51,23.24c-.87,1.46-1.79,2.89-2.74,4.29Zm-51.94-24-.64.47a32.81,32.81,0,0,1-3.46,2.22l-.13.08-.58.32a32.31,32.31,0,0,1-37.62-5.84,32.3,32.3,0,0,1-5.84-37.61l.34-.61.05-.09a32.67,32.67,0,0,1,2.24-3.48l.46-.63a31.74,31.74,0,0,1,2.75-3.19,31.67,31.67,0,0,1,3.18-2.75l.64-.47a33.07,33.07,0,0,1,3.46-2.22l.13-.08.58-.32a32.31,32.31,0,0,1,14.81-3.59,32.16,32.16,0,0,1,22.81,9.43,32.3,32.3,0,0,1,5.84,37.61l-.34.61-.05.09a32.67,32.67,0,0,1-2.24,3.48l-.46.63a31.74,31.74,0,0,1-2.75,3.19A30.56,30.56,0,0,1-2010.33,1159.38ZM-2102,1085l.5-.72q1.18-1.7,2.44-3.34l.78-1c.8-1,1.63-2,2.47-3,.28-.33.55-.65.84-1,1.12-1.25,2.26-2.49,3.45-3.68s2.42-2.34,3.68-3.45c.32-.29.65-.56,1-.84,1-.85,2-1.67,3-2.47l1-.78q1.64-1.26,3.34-2.44l.73-.51c1.4-1,2.83-1.87,4.29-2.74l23.24,42.51a38.76,38.76,0,0,0-6,4.93,38.61,38.61,0,0,0-4.93,6l-42.51-23.25C-2103.89,1087.79-2103,1086.36-2102,1085Zm10.49,110.44a87.22,87.22,0,0,1-16.31-100.49l42.54,23.25a38.74,38.74,0,0,0,8,43,38.58,38.58,0,0,0,27.37,11.32,38.79,38.79,0,0,0,15.66-3.33l23.25,42.54A87.22,87.22,0,0,1-2091.53,1195.4Z" transform="translate(2416.23 1149.82)"/>
      <path class="cls-8" d="M-2039.07,1124.7a12.81,12.81,0,0,0-3.78,9.12,12.81,12.81,0,0,0,3.78,9.12,12.81,12.81,0,0,0,9.12,3.78,12.81,12.81,0,0,0,9.12-3.78,12.81,12.81,0,0,0,3.78-9.12,12.81,12.81,0,0,0-3.78-9.12A13.21,13.21,0,0,0-2039.07,1124.7Zm13.68,13.69a6.6,6.6,0,0,1-9.12,0,6.41,6.41,0,0,1-1.89-4.56,6.41,6.41,0,0,1,1.89-4.56,6.41,6.41,0,0,1,4.56-1.89,6.41,6.41,0,0,1,4.56,1.89,6.41,6.41,0,0,1,1.89,4.56A6.41,6.41,0,0,1-2025.39,1138.38Z" transform="translate(2416.23 1149.82)"/>
    </g>
  </g>
  <g id="cd-title">
    <text class="cls-6" transform="translate(599.73 2284.21)">COMPACT DISC</text>
  </g>
  <g id="cd-text">
    <text class="cls-7" transform="translate(601.23 2347.3)">Since 1974 Phillips had been trying out the idea of CD as the replacement for <tspan class="cls-11" x="739.31" y="0">T</tspan><tspan x="751.02" y="0">ape. Meanwhile, </tspan><tspan x="0" y="28.8">Sony had also been working on it. In 1982, both these companies came forward and developed </tspan><tspan x="0" y="57.6">the Compact Disc together. Sony launched the first ever compact disc player that year. They </tspan><tspan x="0" y="86.4">have had major developments in CDs which all brought the best audio ever released in terms of </tspan><tspan x="0" y="115.2">affordable, high-quality audio, light-weight, and writable.</tspan><tspan x="0" y="172.8">CDs were a major stepping stone since with it began the end of physical formats of music. With </tspan><tspan x="0" y="201.6">the invention of the internet and then the MP3 player, the need for CDs faded. But CDs ruled </tspan><tspan x="0" y="230.4">the market for decades.</tspan></text>
  </g>
  <g id="mp3-line">
    <rect class="cls-2" x="1006.23" y="2911.82" width="65" height="24"/>
  </g>
  <g id="mp3-year">
    <text class="cls-5" transform="translate(1091.23 2946.65)">1992</text>
  </g>
  <g id="mp3-icon">
    <g>
      <path class="cls-8" d="M-1172.08,1595.14h-4.72v-22.75a3.33,3.33,0,0,0,0-.43,3.78,3.78,0,0,0-.91-2.49l-37.87-43.26,0,0a3.77,3.77,0,0,0-.77-.64l-.25-.15a4,4,0,0,0-.76-.32l-.21-.07a3.87,3.87,0,0,0-.88-.11h-93.06a7.71,7.71,0,0,0-7.7,7.7v62.55H-1324a11,11,0,0,0-11,11v57.24a11,11,0,0,0,11,11h4.72v39.19a7.71,7.71,0,0,0,7.7,7.7h127.08a7.71,7.71,0,0,0,7.7-7.7V1674.4h4.72a11,11,0,0,0,11-11v-57.24A11,11,0,0,0-1172.08,1595.14Zm-139.5-62.55h89.21V1572a3.85,3.85,0,0,0,3.85,3.85h34v19.29h-127.08Zm100.35,90.39c0,5.13-1.71,9.48-4.82,12.43-4,3.81-10,5.52-17,5.52a30.63,30.63,0,0,1-4-.23v18.73h-11.74v-51.68a96.24,96.24,0,0,1,16-1.09c7.31,0,12.51,1.4,16,4.21A15.29,15.29,0,0,1-1211.22,1623Zm-104.55,36.45,3.34-52.38h15.78l5.13,17.49c1.64,6.06,3.26,12.59,4.43,18.73h.24c1.48-6.06,3.26-13,5-18.8l5.6-17.41h15.47l2.87,52.38h-11.58l-.78-20c-.24-6.3-.47-13.92-.47-21.53h-.23c-1.63,6.69-3.81,14.15-5.83,20.29l-6.37,20.44h-9.25l-5.6-20.29c-1.71-6.14-3.5-13.6-4.74-20.44h-.16c-.31,7.08-.54,15.15-.93,21.68l-.94,19.9h-11Zm131.28,52.06h-127.08v-37.1h127.08v37.1Zm-6.35-51.21c-6.53,0-12.05-1.71-15-3.57l2.41-8.87a27.81,27.81,0,0,0,11.74,3.11c6.14,0,9.25-3,9.25-6.76,0-5-5-7.23-10.18-7.23h-4.82v-8.47h4.59c4-.07,9-1.55,9-5.83,0-3-2.49-5.28-7.46-5.28a23.06,23.06,0,0,0-10.57,3l-2.41-8.55c3-1.94,9.09-3.81,15.62-3.81,10.8,0,16.79,5.67,16.79,12.59,0,5.36-3,9.56-9.25,11.73v.16c6.07,1.09,11,5.67,11,12.28C-1170.17,1653.77-1178,1660.3-1190.85,1660.3Z" transform="translate(2416.23 1149.82)"/>
      <path class="cls-8" d="M-1232.21,1615.61a20.21,20.21,0,0,0-4.89.46v15.47a18.35,18.35,0,0,0,4,.31c6.3,0,10.19-3.19,10.19-8.56C-1223,1618.48-1226.3,1615.61-1232.21,1615.61Z" transform="translate(2416.23 1149.82)"/>
    </g>
  </g>
  <g id="mp3-title">
    <text class="cls-6" transform="translate(398.73 2709.21)">MP3</text>
  </g>
  <g id="mp3-text">
    <text class="cls-7" transform="translate(397.23 2759.3)">Though MP3s were developed in 1980 by Karlheinz <tspan x="0" y="28.8">Brandenburg, it didn’t catch up the mainstream until </tspan><tspan x="0" y="57.6" xml:space="preserve">1992.  </tspan><tspan x="0" y="115.2">After years of not taking notice, with the launch of Nap</tspan><tspan x="524.77" y="115.2">-</tspan><tspan x="0" y="144">ster MP3 caught up suddenly. With it came the piracy </tspan><tspan x="0" y="172.8">and copyright infringement issues. Even with the short </tspan><tspan x="0" y="201.6">existence of Napster, the MP3 paved the way for the dig</tspan><tspan x="534.38" y="201.6">-</tspan><tspan x="0" y="230.4">ital forms available today.</tspan></text>
  </g>
  <g id="ipod-line">
    <rect class="cls-2" x="376.23" y="3051.82" width="65" height="24"/>
  </g>
  <g id="ipod-year">
    <text class="cls-5" transform="translate(207.23 3087.65)">2001</text>
  </g>
  <g id="ipod-icon">
    <g>
      <path class="cls-8" d="M-2069.89,1972.66h-136.21a3.89,3.89,0,0,0-3.89,3.89V2210.2a3.89,3.89,0,0,0,3.89,3.89h136.21a3.89,3.89,0,0,0,3.89-3.89V1976.55A3.89,3.89,0,0,0-2069.89,1972.66Zm-3.89,233.65h-128.42V1980.44h128.42Z" transform="translate(2416.23 1149.82)"/>
      <path class="cls-8" d="M-2190.53,2073.89h10.38a3.89,3.89,0,0,0,3.89-3.89,3.89,3.89,0,0,0-3.89-3.89h-6.49V1996h97.27v70.08h-75.2a3.89,3.89,0,0,0-3.89,3.89,3.89,3.89,0,0,0,3.89,3.89h79.1a3.89,3.89,0,0,0,3.89-3.89v-77.87a3.89,3.89,0,0,0-3.89-3.89h-105.06a3.89,3.89,0,0,0-3.89,3.89V2070A3.89,3.89,0,0,0-2190.53,2073.89Z" transform="translate(2416.23 1149.82)"/>
      <path class="cls-8" d="M-2138,2092.24a47.91,47.91,0,0,0-47.86,47.86A47.91,47.91,0,0,0-2138,2188a47.91,47.91,0,0,0,47.86-47.86A47.91,47.91,0,0,0-2138,2092.24Zm0,87.93a40.11,40.11,0,0,1-40.07-40.07A40.11,40.11,0,0,1-2138,2100a40.11,40.11,0,0,1,40.07,40.07A40.11,40.11,0,0,1-2138,2180.16Z" transform="translate(2416.23 1149.82)"/>
      <path class="cls-8" d="M-2138,2119.07a21.05,21.05,0,0,0-21,21,21.05,21.05,0,0,0,21,21,21.05,21.05,0,0,0,21-21A21.05,21.05,0,0,0-2138,2119.07Zm0,34.27a13.25,13.25,0,0,1-13.24-13.24,13.25,13.25,0,0,1,13.24-13.24,13.25,13.25,0,0,1,13.24,13.24A13.25,13.25,0,0,1-2138,2153.33Z" transform="translate(2416.23 1149.82)"/>
    </g>
  </g>
  <g id="ipod-title">
    <text class="cls-6" transform="translate(513.73 3149.21)">FIRST IPOD IS LAUNCHED</text>
  </g>
  <g id="ipod-text">
    <text class="cls-7" transform="translate(515.23 3207.3)">iPod was born on 23rd October 2001. iPod was a Mac-only product when it was <tspan x="0" y="28.8">launched, which meant it was compatible with either Mac OS 9 or Mac OSX 10.1.</tspan><tspan x="0" y="86.4">Due to its small size and ease of usage, it stood out from competition which resulted </tspan><tspan x="0" y="115.2">in higher sales. At the time of its launch, music could be added to an iPod from CDs </tspan><tspan x="0" y="144">and other online sources.</tspan><tspan x="0" y="201.6">The initial success of the iPod and a line of Apple’s successive products fueled the </tspan><tspan x="0" y="230.4">explosive growth of this humongous company.</tspan></text>
  </g>
  <g id="stream-line">
    <rect class="cls-2" x="-1995.5" y="2371.5" width="65" height="24" transform="translate(2836.73 5496.32) rotate(90)"/>
  </g>
  <g id="stream-year">
    <text class="cls-5" transform="translate(382.23 3630.65)">2002</text>
  </g>
  <g id="stream-icon">
    <g>
      <path class="cls-8" d="M-1921.94,2593.71l-60.87-41.5a2.78,2.78,0,0,0-2.85-.16,2.77,2.77,0,0,0-1.47,2.45v83a2.76,2.76,0,0,0,1.47,2.45,2.74,2.74,0,0,0,1.29.32,2.77,2.77,0,0,0,1.56-.48l60.87-41.5a2.77,2.77,0,0,0,1.21-2.29A2.77,2.77,0,0,0-1921.94,2593.71Zm-59.66,38.55v-72.53l53.19,36.26Z" transform="translate(2416.23 1149.82)"/>
      <path class="cls-8" d="M-1965,2513a83.09,83.09,0,0,0-83,83,83.09,83.09,0,0,0,83,83,83.09,83.09,0,0,0,83-83A83.09,83.09,0,0,0-1965,2513Zm0,160.47a77.56,77.56,0,0,1-77.47-77.47,77.56,77.56,0,0,1,77.47-77.47,77.56,77.56,0,0,1,77.47,77.47A77.56,77.56,0,0,1-1965,2673.47Z" transform="translate(2416.23 1149.82)"/>
    </g>
  </g>
  <g id="stream-title">
    <text class="cls-6" transform="translate(721.73 3542.21)">STREAMING</text>
  </g>
  <g id="stream-text">
    <text class="cls-7" transform="translate(722.23 3596.3)">With the internet expanding exponentially, entrepreneurs saw the opportunity to <tspan x="0" y="28.8">make music available to all without having to download. </tspan><tspan x="0" y="86.4">It wasn’t until 2007 with the launch of iPhone that streaming really caught on fire. </tspan><tspan x="0" y="115.2">Millions of music and songs were available in the palm of your hand. With the need </tspan><tspan x="0" y="144">for streaming increasing, applications like Spotify were launched. </tspan><tspan x="0" y="201.6">While streaming is the preferred way to listen to music, the other formats of music </tspan><tspan x="0" y="230.4">still haven’t faded off. There’s still a market for Vinyl and CDs specifically.</tspan></text>
  </g>
  <g id="spotify-line">
    <rect class="cls-2" x="-1361" y="3032" width="65" height="24" transform="translate(-240.77 7237.82) rotate(180)"/>
  </g>
  <g id="spotify-year">
    <text class="cls-5" transform="translate(1134.23 4217.65)">2008</text>
  </g>
  <g id="spotify-icon">
    <g>
      <path class="cls-8" d="M-1210,2824a83.18,83.18,0,0,0-83,83,83.18,83.18,0,0,0,83,83,83.18,83.18,0,0,0,83-83A83.18,83.18,0,0,0-1210,2824Zm0,156.27a73.36,73.36,0,0,1-73.27-73.27,73.36,73.36,0,0,1,73.27-73.27,73.36,73.36,0,0,1,73.27,73.27A73.36,73.36,0,0,1-1210,2980.27Z" transform="translate(2416.23 1149.82)"/>
      <path class="cls-8" d="M-1154.41,2900A176.81,176.81,0,0,0-1262,2887.26a4.86,4.86,0,0,1-5.72-3.82,4.86,4.86,0,0,1,3.82-5.72,186.61,186.61,0,0,1,113.57,13.42,4.86,4.86,0,0,1,2.39,6.45A4.86,4.86,0,0,1-1154.41,2900Z" transform="translate(2416.23 1149.82)"/>
      <path class="cls-8" d="M-1174.73,2944.16a127.91,127.91,0,0,0-77.94-9.18,4.86,4.86,0,0,1-5.72-3.82,4.86,4.86,0,0,1,3.82-5.72,137.71,137.71,0,0,1,83.91,9.88,4.86,4.86,0,0,1,2.39,6.45A4.86,4.86,0,0,1-1174.73,2944.16Z" transform="translate(2416.23 1149.82)"/>
      <path class="cls-8" d="M-1164.57,2922.07a152.44,152.44,0,0,0-92.85-10.93,4.86,4.86,0,0,1-5.72-3.82,4.86,4.86,0,0,1,3.82-5.72,162.25,162.25,0,0,1,98.82,11.63,4.86,4.86,0,0,1,2.39,6.45A4.86,4.86,0,0,1-1164.57,2922.07Z" transform="translate(2416.23 1149.82)"/>
    </g>
  </g>
  <g id="spotify-title">
    <text class="cls-6" transform="translate(231.73 3988.21)">SPOTIFY IS LAUNCHED</text>
  </g>
  <g id="spotify-text">
    <text class="cls-7" transform="translate(230.23 4053.3)">Launched in Stockholm in 2008, Spotify has a library of more than 20 million <tspan x="0" y="28.8">songs that people can choose from. They either pay for the premium service to </tspan><tspan x="0" y="57.6">stream music without interruption or they listen for free but with adverts be</tspan><tspan x="725.68" y="57.6">-</tspan><tspan x="0" y="86.4">tween songs.</tspan><tspan x="0" y="144">Per Sundin insists that Spotify – in which Universal and other big record labels </tspan><tspan x="0" y="172.8">have minority stakes – has saved the music industry, although the company </tspan><tspan x="0" y="201.6">itself remains lossmaking.</tspan></text>
  </g>
</svg>
